inDegrees=yes
name=ik_data_2024_11_07_17_55
DataType=double
version=3
OpenSimVersion=4.5.1
endheader
time	pelvis_tilt	pelvis_list	pelvis_rotation	pelvis_tx	pelvis_ty	pelvis_tz	hip_flexion_r	hip_adduction_r	hip_rotation_r	knee_angle_r	knee_angle_r_beta	ankle_angle_r	subtalar_angle_r	mtp_angle_r	hip_flexion_l	hip_adduction_l	hip_rotation_l	knee_angle_l	knee_angle_l_beta	ankle_angle_l	subtalar_angle_l	mtp_angle_l	lumbar_extension	lumbar_bending	lumbar_rotation	arm_flex_r	arm_add_r	arm_rot_r	elbow_flex_r	pro_sup_r	wrist_flex_r	wrist_dev_r	arm_flex_l	arm_add_l	arm_rot_l	elbow_flex_l	pro_sup_l	wrist_flex_l	wrist_dev_l
7.54731	-1.638274396038993	-0.3378311813425216	165.5759937432694	0	0.9399999999999999	0	-7.14083834642884	0.4251396861079634	2.558574663736423	0.02602467199716334	0.0004542162131020686	-3.701107995458333	0	0	-1.236456937103584	0.716935309441444	-2.67575106330837	0.5124482934741038	0.008943909967349282	-3.701107995458333	0	0	0	0	0	0	-2.869469683099071	0	34.7144895629985	31.04688839806273	0	0	0	-2.869469683099071	0	34.7144895629985	31.04688839806273	0	0
7.60001	-1.542207740296452	-0.14295348990319	167.0795155139538	0	0.9399999999999999	0	-6.390296262246069	1.103739913103316	1.109682794811853	0.03107936682457576	0.000542437280523942	-3.741374139499696	0	0	-1.2055049991498	0.4622998311505958	-1.179399378490143	0.5084386046813938	0.008873927695936177	-3.741374139499696	0	0	0	0	0	0	-2.926340348227534	0	35.15789325688132	31.35391699374216	0	0	0	-2.926340348227534	0	35.15789325688132	31.35391699374216	0	0
7.66516	-1.633830348340911	-0.009436954092474897	168.1616348745326	0	0.9399999999999999	0	-5.859086917122132	1.453733184285993	0.04185077587556783	0.03783157403307928	0.0006602855280892235	-3.74629592646081	0	0	-1.327957819734249	0.3365203697744917	-0.1082899128186423	0.5171642042114813	0.009026218136946674	-3.74629592646081	0	0	0	0	0	0	-2.931826946690026	0	35.20589790394991	31.38966272185588	0	0	0	-2.931826946690026	0	35.20589790394991	31.38966272185588	0	0
7.71766	-1.567345690926878	0.1017881608675151	169.0120498038018	0	0.9399999999999999	0	-5.070647301010927	1.827154914415325	-0.7845548777834339	0.04626391695049989	0.0008074576756554376	-3.766114703728936	0	0	-1.294530056645673	0.1931740876178374	0.7497908998997546	0.5043247903771279	0.008802128091511097	-3.766114703728936	0	0	0	0	0	0	-2.960895002256529	0	35.42999752375105	31.54259174388571	0	0	0	-2.960895002256529	0	35.42999752375105	31.54259174388571	0	0
7.72825	-1.526607525295721	0.1898466464759352	169.6937096207389	0	0.9399999999999999	0	-4.392785420636478	2.117929522317294	-1.472858057459539	0.05947297835015961	0.00103799928817759	-3.770217354488637	0	0	-1.265990189481544	0.08528497708666247	1.424271211542551	0.5158694172740773	0.009003619841777159	-3.770217354488637	0	0	0	0	0	0	-2.965528494009187	0	35.47024940780948	31.57246281691185	0	0	0	-2.965528494009187	0	35.47024940780948	31.57246281691185	0	0
7.78343	-1.549687791295647	0.2434698769107537	170.0946059772619	0	0.9399999999999999	0	-3.909813573810079	2.197743347043318	-1.880828080687624	0.07951623763932729	0.001387820155604504	-3.782981767779139	0	0	-1.301450795959764	0.02575999388049455	1.828365694701884	0.5142188349507544	0.008974811745659957	-3.782981767779139	0	0	0	0	0	0	-2.979915775436025	0	35.5953797902884	31.66540657825156	0	0	0	-2.979915775436025	0	35.5953797902884	31.66540657825156	0	0
7.84119	-1.564269657562919	0.3680813359000698	171.0943379970145	0	0.9399999999999999	0	-3.454923355615802	2.469023149471085	-2.882324903553917	0.1204572664768812	0.002102375907973767	-3.79546522179288	0	0	-1.333599528582694	-0.1154981987940842	2.820901272688353	0.5097042675025641	0.008896017679385679	-3.79546522179288	0	0	0	0	0	0	-2.994158996622473	0	35.71854067338516	31.75655340905233	0	0	0	-2.994158996622473	0	35.71854067338516	31.75655340905233	0	0
7.90031	-1.597370336658722	0.4655616442631006	171.8069691024117	0	0.9399999999999999	0	-2.911619139606732	2.658324276249324	-3.617767277001283	0.1854263360120744	0.003236300083320031	-3.812365539797844	0	0	-1.382956518573533	-0.2272165666413311	3.529755692340236	0.5143427629794488	0.008976974697796181	-3.812365539797844	0	0	0	0	0	0	-3.013604339663308	0	35.88605816176698	31.88023483440813	0	0	0	-3.013604339663308	0	35.88605816176698	31.88023483440813	0	0
7.90785	-1.615004184019544	0.596604100823891	172.8120162831234	0	0.9399999999999999	0	-2.336978473276179	2.82043662455672	-4.665521725550798	0.3502013414354044	0.006112166452948651	-3.831551462606694	0	0	-1.415294692724153	-0.375660975266939	4.531886761740389	0.5123566668247382	0.008942310780635282	-3.831551462606694	0	0	0	0	0	0	-3.036038846928447	0	36.07790082650106	32.0212057075351	0	0	0	-3.036038846928447	0	36.07790082650106	32.0212057075351	0	0
7.96494	-1.608287058645009	0.7484972931361301	173.8922272525761	0	0.9399999999999999	0	-1.729040400460015	2.912332797335168	-5.833932318433208	0.7701947450725224	0.01344243418307389	-3.833021979681748	0	0	-1.431708644486182	-0.5602516327552435	5.620049820790541	0.5064327687320944	0.008838919254366036	-3.833021979681748	0	0	0	0	0	0	-3.037797641844379	0	36.09272897980873	32.03203968237094	0	1.077613842297402e-35	0	-3.037797641844379	0	36.09272897980873	32.03203968237094	0	1.077613842297402e-35
8.01755	-1.727774219200073	0.8174205269910981	174.4985421431553	0	0.9399999999999999	0	-1.372759870874106	2.830717954430008	-6.549578840747422	1.250938316770351	0.02183299236699841	-3.834904819732808	0	0	-1.542572626301785	-0.6324093239574352	6.21680685388926	0.5074510380778553	0.008856691407121692	-3.834904819732808	0	0	0	0	0	0	-3.040032018847213	0	36.11165065591796	32.04589418964612	0	0	0	-3.040032018847213	0	36.11165065591796	32.04589418964612	0	0
8.08352	-1.805306094414315	0.8549109915726186	174.8226409543913	0	0.9399999999999999	0	-1.138867290802169	2.697493080191519	-6.987004440998418	1.851055499916267	0.03230701311068848	-3.837105725625145	0	0	-1.622881407109589	-0.6721528147514979	6.535113152543349	0.5089070574182877	0.008882103738584954	-3.837105725625145	0	0	0	0	0	0	-3.04264204412085	0	36.1337788265873	32.06209495803149	0	0	0	-3.04264204412085	0	36.1337788265873	32.06209495803149	0	0
8.087249999999999	-1.897340526933234	0.9259156219696369	175.2570854164631	0	0.9399999999999999	0	-1.052048019746705	2.498584624719061	-7.487341397362045	2.210934486907968	0.0385880863424355	-3.838673133405163	0	0	-1.703187694954815	-0.7380523072131859	6.968682631925528	0.5280211352395433	0.009215707330048289	-3.838673133405163	0	0	0	0	0	0	-3.044503193203126	0	36.14953674515444	32.07363118437558	0	0	0	-3.044503193203126	0	36.14953674515444	32.07363118437558	0	0
8.134539999999999	-1.944039153374895	0.9654648192344987	175.6866419266718	0	0.9399999999999999	0	-1.113115933389328	2.302971984684867	-7.96926577473371	2.531616973692133	0.04418505159030238	-3.840922803934856	0	0	-1.746102734891825	-0.7923330193885136	7.392834568855156	0.5163747351718359	0.009012439302862304	-3.840922803934856	0	0	0	0	0	0	-3.047151585971442	0	36.17207148833015	32.09016696832528	0	0	0	-3.047151585971442	0	36.17207148833015	32.09016696832528	0	0
8.20238	-1.948429035609745	0.9575429367017707	175.6334251329458	0	0.9399999999999999	0	-1.321018774951529	2.139710904506081	-7.944589761235288	2.701518386168872	0.04715039064181045	-3.842592175267619	0	0	-1.751983724702455	-0.7807204960162972	7.340496936737098	0.5130861622844878	0.008955042878286263	-3.842592175267619	0	0	0	0	0	0	-3.049101591934231	0	36.18874553225346	32.10242577034817	0	0	0	-3.049101591934231	0	36.18874553225346	32.10242577034817	0	0
8.26613	-1.879494794460118	0.9402412322924207	175.510778505381	0	0.9399999999999999	0	-1.519592392450311	1.982307512293026	-7.828489053030551	2.749728560447394	0.04799181691593094	-3.844042614979637	0	0	-1.686288500037606	-0.7645351745763623	7.221093641530532	0.5092965829006707	0.008888902240772956	-3.844042614979637	0	0	0	0	0	0	-3.050804518994239	0	36.20326377616865	32.11308556952469	0	0	0	-3.050804518994239	0	36.20326377616865	32.11308556952469	0	0
8.26824	-1.866158019244643	0.9296021072609514	175.4962205068522	0	0.9399999999999999	0	-1.900916031588323	1.883540350895463	-7.739653213950754	2.341130840911538	0.0408604413938899	-3.846509174900499	0	0	-1.664288887177182	-0.7474668149844524	7.206423249076034	0.5141293891735683	0.008973250622346055	-3.846509174900499	0	0	0	0	0	0	-3.053701934404261	0	36.22797219723869	32.13122129600572	0	0	0	-3.053701934404261	0	36.22797219723869	32.13122129600572	0	0
8.31908	-1.878362135211912	0.9568165739760367	175.683232902704	0	0.9399999999999999	0	-2.317820518285617	1.8536763199614	-7.889949407084826	2.168768190354537	0.03785214563420581	-3.848548957638408	0	0	-1.681443439650425	-0.7795399171274526	7.390176391591337	0.5155854169166793	0.008998663100463723	-3.848548957638408	0	0	0	0	0	0	-3.056100629484805	0	36.24841247159502	32.14622121474335	0	0	0	-3.056100629484805	0	36.24841247159502	32.14622121474335	0	0
8.38288	-1.93794156308558	1.055080249104148	176.4343439576796	0	0.9399999999999999	0	-2.967424287969068	1.89262195951806	-8.581214048402874	1.875402661672098	0.03273195124684337	-3.850363679413715	0	0	-1.714972415323311	-0.89610073348869	8.135690175012208	0.5411764517803707	0.009445310917827797	-3.850363679413715	0	0	0	0	0	0	-3.058266331071076	0	36.2667097805849	32.15959702265152	0	0	0	-3.058266331071076	0	36.2667097805849	32.15959702265152	0	0
8.439069999999999	-2.099464919722062	1.094248111707135	176.8326969433217	0	0.9399999999999999	0	-3.800971007725718	1.84739991635103	-8.833030764203254	1.118895321743146	0.0195284073495792	-3.85236622056629	0	0	-1.875011220960252	-0.9368762918225968	8.536165677580286	0.5294565593646386	0.009240760207193761	-3.85236622056629	0	0	0	0	0	0	-3.060657342069832	0	36.28691482663194	32.17436305338984	0	0	0	-3.060657342069832	0	36.28691482663194	32.17436305338984	0	0
8.447190000000001	-2.155514033503806	1.096152679576873	176.8193309759703	0	0.9399999999999999	0	-4.857491243728041	1.72543571974367	-8.710148137001882	0.5552050789029935	0.009690156650652143	-3.854481357344718	0	0	-1.945273510748745	-0.9551370704578946	8.516611763166933	0.5258084787134852	0.009177089188452836	-3.854481357344718	0	0	0	0	0	0	-3.063152320066617	0	36.30815235866332	32.18993259815996	0	0	0	-3.063152320066617	0	36.30815235866332	32.18993259815996	0	0
8.500030000000001	-2.109655307049489	1.05621540154873	176.4516671494556	0	0.9399999999999999	0	-5.448854546862614	1.44359639915651	-8.270203360573873	0.1466565217731365	0.002559639174463984	-3.857080138326534	0	0	-1.902014913305909	-0.8880145093272419	8.14750508108156	0.5126564941029825	0.008947543753827938	-3.857080138326534	0	0	0	0	0	0	-3.066227281903195	0	36.33428659517397	32.20907512636599	0	0	0	-3.066227281903195	0	36.33428659517397	32.20907512636599	0	0
8.56714	-1.988394836963249	0.9894186637325767	175.8991408959832	0	0.9399999999999999	0	-5.85244338268041	1.085689936445323	-7.704972953835181	0.08125047423541708	0.00141808829421485	-3.870157144157038	0	0	-1.792030884754367	-0.8202792653940354	7.60417038690605	0.5073006328062442	0.008854066339919722	-3.870157144157038	0	0	0	0	0	0	-3.082004602684559	0	36.46729143905529	32.30589763359507	0	0	0	-3.082004602684559	0	36.46729143905529	32.30589763359507	0	0
